<svg width="18" height="18" viewBox="0 0 18 18" fill="none" xmlns="http://www.w3.org/2000/svg">
<path d="M9 0C10.78 0 12.5201 0.527841 14.0001 1.51677C15.4802 2.50571 16.6337 3.91131 17.3149 5.55585C17.9961 7.20038 18.1743 9.00998 17.8271 10.7558C17.4798 12.5016 16.6226 14.1053 15.364 15.364C14.1053 16.6226 12.5016 17.4798 10.7558 17.8271C9.00998 18.1743 7.20038 17.9961 5.55585 17.3149C3.91131 16.6337 2.50571 15.4802 1.51677 14.0001C0.527841 12.5201 0 10.78 0 9C0 6.61305 0.948211 4.32387 2.63604 2.63604C4.32387 0.948211 6.61305 0 9 0ZM9 2C7.61553 2 6.26215 2.41054 5.11101 3.17971C3.95986 3.94888 3.06266 5.04213 2.53284 6.32122C2.00303 7.6003 1.86441 9.00776 2.1345 10.3656C2.4046 11.7235 3.07129 12.9708 4.05025 13.9497C5.02922 14.9287 6.2765 15.5954 7.63437 15.8655C8.99224 16.1356 10.3997 15.997 11.6788 15.4672C12.9579 14.9373 14.0511 14.0401 14.8203 12.889C15.5895 11.7378 16 10.3845 16 9C16 7.14348 15.2625 5.36301 13.9497 4.05025C12.637 2.7375 10.8565 2 9 2ZM13 8C13.2652 8 13.5196 8.10536 13.7071 8.29289C13.8946 8.48043 14 8.73478 14 9C14 9.26522 13.8946 9.51957 13.7071 9.70711C13.5196 9.89464 13.2652 10 13 10H5C4.73478 10 4.48043 9.89464 4.29289 9.70711C4.10536 9.51957 4 9.26522 4 9C4 8.73478 4.10536 8.48043 4.29289 8.29289C4.48043 8.10536 4.73478 8 5 8H13Z" fill="#8E99AB"/>
</svg>
