<?xml version="1.0" standalone="no"?>
<!DOCTYPE svg PUBLIC "-//W3C//DTD SVG 20010904//EN"
 "http://www.w3.org/TR/2001/REC-SVG-20010904/DTD/svg10.dtd">
<svg version="1.0" xmlns="http://www.w3.org/2000/svg"
 width="500.000000pt" height="500.000000pt" viewBox="0 0 500.000000 500.000000"
 preserveAspectRatio="xMidYMid meet">

<g transform="translate(0.000000,500.000000) scale(0.100000,-0.100000)"
fill="#000000" stroke="none">
<path d="M1793 2911 c-16 -26 -22 -29 -96 -35 -157 -13 -215 -35 -203 -74 4
-12 12 -20 17 -16 6 3 8 12 5 20 -4 9 4 18 20 24 30 12 213 34 220 28 2 -3 -1
-18 -7 -34 -6 -16 -28 -85 -48 -154 l-37 -125 -82 -3 c-94 -3 -102 -13 -43
-53 47 -33 72 -85 76 -158 3 -72 18 -72 27 -1 7 58 34 179 41 186 2 2 52 7
110 11 59 3 107 10 107 15 0 6 -44 9 -102 7 l-103 -2 2 29 c2 17 21 87 43 157
l41 127 152 0 c84 0 168 -4 187 -10 19 -5 38 -6 43 -1 19 19 -62 31 -209 31
-85 0 -154 4 -154 9 0 5 7 14 15 21 17 14 20 30 5 30 -6 0 -18 -13 -27 -29z
m-133 -397 c0 -4 -5 -25 -12 -48 -12 -45 -28 -69 -28 -45 0 9 -16 34 -36 57
l-36 42 56 0 c31 0 56 -3 56 -6z"/>
<path d="M2771 2869 c-5 -13 -16 -44 -24 -69 l-14 -45 -81 -3 c-105 -4 -107
-22 -3 -22 l80 0 -25 -92 c-27 -105 -61 -148 -114 -148 -27 0 -30 3 -30 33 0
28 -3 32 -27 32 -16 0 -49 -13 -75 -28 -72 -43 -138 -57 -138 -28 0 4 14 11
32 16 17 6 33 16 36 22 7 24 -28 25 -78 4 -61 -26 -86 -27 -100 -1 -11 21 -50
28 -50 9 0 -8 -5 -8 -15 1 -12 10 -16 9 -21 -3 -5 -15 -53 -37 -80 -37 -8 0
-14 11 -14 25 0 18 -5 25 -19 25 -28 0 -45 -25 -32 -48 10 -19 6 -32 -11 -32
-4 0 -8 14 -8 30 0 34 -15 40 -23 9 -12 -45 18 -68 61 -45 15 7 46 18 69 23
39 9 42 8 45 -11 4 -31 21 -24 41 18 20 41 32 45 48 15 9 -18 17 -20 50 -16
31 4 39 2 44 -13 11 -33 72 -34 135 0 19 10 24 9 37 -10 14 -20 16 -20 39 -5
22 14 26 14 49 -1 23 -15 27 -15 65 4 47 23 48 19 25 -68 -19 -71 -19 -96 1
-104 13 -5 15 -1 10 18 -5 22 32 185 80 354 l15 52 169 0 c102 0 171 4 175 10
4 7 -53 10 -164 10 -94 0 -171 3 -171 6 0 3 7 33 16 66 15 61 13 90 -5 47z
m-761 -339 c0 -5 -4 -10 -10 -10 -5 0 -10 5 -10 10 0 6 5 10 10 10 6 0 10 -4
10 -10z m520 4 c0 -13 -21 -44 -30 -44 -14 0 -12 24 2 38 13 13 28 16 28 6z"/>
<path d="M2793 2548 c-4 -7 -15 -13 -23 -13 -21 0 -25 -49 -5 -65 14 -12 21
-11 48 2 51 25 117 38 117 23 0 -7 7 -18 15 -25 13 -10 20 -11 39 -1 19 10 27
10 44 0 18 -12 25 -10 50 8 19 14 37 19 55 16 14 -3 40 0 58 6 29 10 31 9 26
-9 -8 -30 6 -32 39 -3 71 61 89 64 96 13 5 -37 48 -38 103 -3 25 15 45 31 45
36 0 11 -6 9 -56 -22 -50 -32 -74 -31 -74 3 -1 52 -40 59 -90 16 -32 -27 -42
-25 -34 8 l7 27 -26 -24 c-17 -15 -39 -24 -63 -25 -32 -1 -39 3 -43 23 -6 22
-7 22 -31 -15 -30 -46 -44 -46 -48 1 -3 33 -22 51 -22 21 0 -8 -11 -27 -23
-42 -31 -35 -50 -25 -41 22 l6 35 -37 -25 c-50 -34 -85 -35 -85 -1 0 18 -5 25
-20 25 -10 0 -23 -6 -27 -12z m27 -18 c0 -5 -4 -10 -10 -10 -5 0 -10 5 -10 10
0 6 5 10 10 10 6 0 10 -4 10 -10z m-22 -34 c3 -12 -1 -17 -10 -14 -7 3 -15 13
-16 22 -3 12 1 17 10 14 7 -3 15 -13 16 -22z"/>
</g>
</svg>
